<?xml version="1.0" standalone="no"?>
<!DOCTYPE svg PUBLIC "-//W3C//DTD SVG 20010904//EN"
 "http://www.w3.org/TR/2001/REC-SVG-20010904/DTD/svg10.dtd">
<svg version="1.0" xmlns="http://www.w3.org/2000/svg"
 width="420.000000pt" height="420.000000pt" viewBox="0 0 420.000000 420.000000"
 preserveAspectRatio="xMidYMid meet">
<metadata>
Created by potrace 1.14, written by Peter Selinger 2001-2017
</metadata>
<g transform="translate(0.000000,420.000000) scale(0.100000,-0.100000)"
fill="#000000" stroke="none">
<path d="M2411 3780 c-23 -11 -46 -18 -51 -15 -12 7 -146 17 -244 17 -133 0
-253 -22 -357 -66 -20 -8 -39 -12 -43 -9 -3 4 -6 2 -6 -3 0 -6 -17 -18 -37
-27 -41 -18 -170 -120 -209 -165 -62 -72 -75 -89 -119 -164 -28 -47 -45 -87
-42 -98 3 -11 0 -17 -7 -14 -12 5 -70 -178 -81 -256 -1 -14 -3 -28 -4 -32 -1
-4 -14 -14 -29 -24 -58 -34 -135 -194 -141 -291 -1 -13 -36 -9 -55 6 -16 13
-40 -3 -33 -22 3 -9 1 -17 -6 -20 -12 -4 -67 21 -68 31 -3 33 -22 101 -41 155
-6 15 -18 27 -28 27 -24 0 -40 -42 -40 -106 l0 -55 -62 2 c-92 2 -102 0 -123
-15 -19 -14 -19 -15 -1 -35 11 -12 36 -26 58 -33 l38 -11 -46 -44 c-56 -52
-50 -73 18 -66 l41 5 -22 -31 c-12 -17 -19 -35 -16 -41 8 -13 42 -13 50 0 3 6
13 10 20 10 11 0 13 -8 9 -28 -4 -19 -1 -32 10 -41 21 -18 46 8 81 81 26 56
50 86 60 76 3 -3 1 -16 -3 -29 -8 -19 -4 -28 20 -51 17 -16 36 -28 44 -28 8 0
14 -4 14 -8 0 -5 16 -17 35 -28 19 -10 35 -22 35 -26 0 -5 6 -8 13 -8 6 0 28
-16 47 -36 19 -20 57 -47 85 -61 27 -14 61 -35 75 -47 14 -13 45 -29 69 -36
86 -27 212 -122 216 -162 2 -14 8 -49 13 -79 6 -30 14 -81 17 -114 3 -33 8
-71 10 -85 2 -14 6 -56 10 -93 3 -37 8 -78 11 -90 2 -12 6 -41 9 -65 2 -23 11
-49 19 -57 11 -11 13 -22 7 -38 -5 -12 -8 -96 -7 -186 l1 -164 30 -17 c17 -9
35 -16 40 -14 6 2 33 5 62 8 58 6 56 8 68 -79 4 -27 11 -70 17 -94 10 -40 15
-45 67 -68 31 -14 65 -27 77 -29 12 -2 42 -13 68 -24 41 -19 45 -23 31 -36
-12 -12 -13 -20 -3 -37 6 -12 15 -25 21 -28 19 -13 -2 -37 -72 -85 -80 -56
-92 -77 -51 -94 46 -19 291 7 337 36 30 19 52 104 55 211 2 60 -15 85 -52 78
-12 -2 -25 6 -36 23 -9 15 -35 51 -57 80 -37 49 -55 102 -34 102 4 0 5 5 2 10
-4 6 -3 16 2 23 5 7 10 26 12 42 2 17 5 32 8 35 2 3 41 5 85 6 119 2 166 22
173 74 0 3 3 10 7 16 4 6 9 21 12 35 11 58 15 61 70 56 28 -3 62 -8 75 -11 13
-3 48 -8 77 -11 29 -2 63 -9 77 -14 14 -5 27 -7 31 -4 3 3 38 6 78 7 113 4
115 5 150 106 5 14 11 36 14 50 3 13 12 40 21 59 15 31 18 32 29 16 8 -10 11
-22 8 -26 -2 -4 10 -45 28 -91 37 -96 40 -115 22 -143 -6 -11 -19 -41 -28 -67
-29 -87 7 -117 88 -76 44 22 109 68 114 81 2 4 8 7 12 7 5 0 37 18 71 40 34
22 68 40 75 40 21 0 124 106 124 127 0 24 -19 43 -43 43 -11 0 -46 -18 -78
-40 -62 -42 -79 -48 -79 -27 0 19 -56 70 -68 63 -6 -4 -14 -1 -18 6 -11 17 -6
226 6 268 16 54 12 79 -16 107 -22 22 -31 24 -73 20 -59 -6 -67 -1 -76 45 -11
58 -57 88 -95 61 -22 -16 -39 -9 -44 18 -1 8 -9 34 -16 59 -8 25 -14 52 -15
60 -1 19 -13 56 -30 95 -47 105 -47 133 -4 180 10 11 25 40 34 64 8 23 28 59
44 79 15 21 31 46 35 58 3 11 25 38 49 61 72 68 114 171 123 302 4 45 13 86
25 108 11 19 17 38 14 44 -4 5 -3 13 0 19 6 9 12 7 83 -37 15 -10 32 -18 37
-19 6 -1 18 -5 28 -9 20 -8 22 6 7 36 -10 17 -8 19 25 13 40 -6 44 3 15 36
-24 28 -22 30 22 35 18 2 36 4 41 4 20 2 3 31 -28 45 -34 16 -54 35 -38 37 22
2 48 9 74 20 23 9 27 14 18 25 -10 13 -59 26 -104 28 -11 1 -25 5 -30 8 -6 4
-17 3 -24 -2 -8 -4 -26 -4 -42 0 -15 5 -30 6 -33 3 -3 -3 -5 3 -5 13 1 49 -22
114 -39 114 -25 -1 -37 -24 -48 -95 -3 -22 -8 -47 -9 -55 -2 -8 -4 -29 -4 -45
-1 -40 -40 -67 -56 -39 -18 32 -101 111 -135 129 -49 26 -159 55 -205 55 -54
0 -61 7 -68 65 -4 28 -9 64 -12 82 -8 41 -86 181 -122 216 -52 50 -167 137
-183 137 -8 0 -35 -9 -59 -20z"/>
</g>
</svg>
